<?xml version="1.0" standalone="no"?>
<!DOCTYPE svg PUBLIC "-//W3C//DTD SVG 20010904//EN"
 "http://www.w3.org/TR/2001/REC-SVG-20010904/DTD/svg10.dtd">
<svg version="1.0" xmlns="http://www.w3.org/2000/svg"
 width="446.000000pt" height="159.000000pt" viewBox="0 0 446.000000 159.000000"
 preserveAspectRatio="xMidYMid meet">
<metadata>
Created by potrace 1.15, written by Peter Selinger 2001-2017
</metadata>
<g transform="translate(0.000000,159.000000) scale(0.100000,-0.100000)"
fill="#000000" stroke="none">
<path d="M140 815 l0 -655 85 0 85 0 0 295 0 295 135 0 135 0 0 80 0 80 -135
0 -135 0 0 205 0 205 150 0 150 0 0 75 0 75 -235 0 -235 0 0 -655z"/>
<path d="M2250 815 l0 -655 230 0 230 0 0 75 0 75 -145 0 -145 0 0 580 0 580
-85 0 -85 0 0 -655z"/>
<path d="M1870 1160 l0 -120 -45 0 -45 0 0 -65 0 -65 45 0 45 0 0 -375 0 -375
80 0 80 0 2 373 3 372 43 3 42 3 0 65 0 64 -45 0 -45 0 0 120 0 120 -80 0 -80
0 0 -120z"/>
<path d="M4120 1160 l0 -120 -40 0 -40 0 0 -65 0 -65 40 0 40 0 0 -375 0 -375
85 0 85 0 0 375 0 375 45 0 46 0 -3 63 -3 62 -42 3 -43 3 0 120 0 119 -85 0
-85 0 0 -120z"/>
<path d="M832 1043 c-39 -8 -97 -74 -121 -138 -33 -88 -48 -275 -33 -423 15
-158 35 -223 87 -279 38 -43 45 -46 100 -51 73 -6 116 15 150 72 l25 41 0 -52
0 -53 85 0 85 0 0 440 0 440 -85 0 -85 0 0 -45 0 -46 -32 37 c-49 55 -99 72
-176 57z m174 -181 c33 -48 47 -155 42 -311 -4 -101 -10 -149 -24 -186 -37
-96 -109 -101 -154 -10 -23 46 -25 63 -28 211 -4 184 7 259 45 305 21 25 32
30 62 27 27 -2 40 -11 57 -36z"/>
<path d="M1455 1035 c-90 -35 -144 -119 -145 -226 0 -102 30 -153 147 -246
104 -83 129 -121 119 -182 -3 -19 -17 -46 -31 -60 -37 -37 -116 -36 -174 2
l-41 27 0 -80 0 -81 46 -21 c70 -30 174 -23 239 17 93 58 135 182 101 298 -20
68 -47 102 -145 179 -88 69 -111 100 -111 148 1 82 89 115 188 70 l42 -19 0
75 0 75 -37 16 c-54 22 -150 26 -198 8z"/>
<path d="M2958 1036 c-58 -21 -87 -43 -119 -94 -54 -86 -64 -137 -64 -342 0
-163 3 -193 22 -256 28 -87 83 -155 148 -179 58 -23 165 -17 220 11 51 26 100
90 120 157 45 145 42 413 -6 542 -50 138 -190 208 -321 161z m142 -164 c38
-39 50 -104 50 -281 0 -219 -27 -291 -109 -291 -46 0 -73 27 -93 94 -17 55
-17 357 0 412 26 89 98 120 152 66z"/>
<path d="M3608 1036 c-58 -21 -87 -43 -119 -94 -54 -86 -64 -137 -64 -342 0
-163 3 -193 22 -256 28 -87 83 -155 148 -179 58 -23 165 -17 220 11 51 26 100
90 120 157 45 145 42 413 -6 542 -50 138 -190 208 -321 161z m142 -164 c38
-39 50 -104 50 -281 0 -219 -27 -291 -109 -291 -46 0 -73 27 -93 94 -17 55
-17 357 0 412 26 89 98 120 152 66z"/>
</g>
</svg>
