<?xml version="1.0" encoding="utf-8"?>
<svg version="1.1" width="326px" height="86" id="svg3055" xmlns="http://www.w3.org/2000/svg">
  <defs id="defs3059">
    <linearGradient x1="0" y1="0" x2="1" y2="0" id="linearGradient12648" gradientUnits="userSpaceOnUse" gradientTransform="translate(-44.21456,-9.8500092)"/>
    <linearGradient x1="-7708.7969" y1="-803.36011" x2="-7633.1528" y2="-714.90741" id="linearGradient5344" gradientUnits="userSpaceOnUse" gradientTransform="matrix(0.4226,-0.9063,0.9063,0.4226,4226.9761,-6584.5938)">
      <stop id="stop4704" style="stop-color:#f69923;stop-opacity:1" offset="0"/>
      <stop id="stop4706" style="stop-color:#f79a23;stop-opacity:1" offset="0.3123"/>
      <stop id="stop4708" style="stop-color:#e97826;stop-opacity:1" offset="0.8383"/>
    </linearGradient>
    <linearGradient x1="-8268.6387" y1="-813.12323" x2="-7728.9585" y2="-813.12323" id="linearGradient5346" gradientUnits="userSpaceOnUse" gradientTransform="matrix(0.4226,-0.9063,0.9063,0.4226,4226.9761,-6584.5938)">
      <stop id="stop4729" style="stop-color:#9e2064;stop-opacity:1" offset="0.3233"/>
      <stop id="stop4731" style="stop-color:#c92037;stop-opacity:1" offset="0.6302"/>
      <stop id="stop4733" style="stop-color:#cd2335;stop-opacity:1" offset="0.7514"/>
      <stop id="stop4735" style="stop-color:#e97826;stop-opacity:1" offset="1"/>
    </linearGradient>
    <linearGradient x1="-8203.4922" y1="-758.99402" x2="-7881.895" y2="-758.99402" id="linearGradient5348" gradientUnits="userSpaceOnUse" gradientTransform="matrix(0.4226,-0.9063,0.9063,0.4226,4226.9761,-6584.5938)">
      <stop id="stop4740" style="stop-color:#282662;stop-opacity:1" offset="0"/>
      <stop id="stop4742" style="stop-color:#662e8d;stop-opacity:1" offset="0.0955"/>
      <stop id="stop4744" style="stop-color:#9f2064;stop-opacity:1" offset="0.7882"/>
      <stop id="stop4746" style="stop-color:#cd2032;stop-opacity:1" offset="0.9487"/>
    </linearGradient>
    <linearGradient x1="-8238.3281" y1="-818.15222" x2="-7698.647" y2="-818.15222" id="linearGradient5350" gradientUnits="userSpaceOnUse" gradientTransform="matrix(0.4226,-0.9063,0.9063,0.4226,4226.9761,-6584.5938)">
      <stop id="stop4751" style="stop-color:#9e2064;stop-opacity:1" offset="0.3233"/>
      <stop id="stop4753" style="stop-color:#c92037;stop-opacity:1" offset="0.6302"/>
      <stop id="stop4755" style="stop-color:#cd2335;stop-opacity:1" offset="0.7514"/>
      <stop id="stop4757" style="stop-color:#e97826;stop-opacity:1" offset="1"/>
    </linearGradient>
    <linearGradient x1="-8198.9678" y1="-810.85059" x2="-7915.3501" y2="-810.85059" id="linearGradient5352" gradientUnits="userSpaceOnUse" gradientTransform="matrix(0.4226,-0.9063,0.9063,0.4226,4226.9761,-6584.5938)">
      <stop id="stop4762" style="stop-color:#282662;stop-opacity:1" offset="0"/>
      <stop id="stop4764" style="stop-color:#662e8d;stop-opacity:1" offset="0.0955"/>
      <stop id="stop4766" style="stop-color:#9f2064;stop-opacity:1" offset="0.7882"/>
      <stop id="stop4768" style="stop-color:#cd2032;stop-opacity:1" offset="0.9487"/>
    </linearGradient>
    <linearGradient x1="-8238.3281" y1="-762.29712" x2="-7698.647" y2="-762.29712" id="linearGradient5354" gradientUnits="userSpaceOnUse" gradientTransform="matrix(0.4226,-0.9063,0.9063,0.4226,4226.9761,-6584.5938)">
      <stop id="stop4773" style="stop-color:#9e2064;stop-opacity:1" offset="0.3233"/>
      <stop id="stop4775" style="stop-color:#c92037;stop-opacity:1" offset="0.6302"/>
      <stop id="stop4777" style="stop-color:#cd2335;stop-opacity:1" offset="0.7514"/>
      <stop id="stop4779" style="stop-color:#e97826;stop-opacity:1" offset="1"/>
    </linearGradient>
    <linearGradient x1="-8271.8057" y1="-765.07068" x2="-7732.125" y2="-765.07068" id="linearGradient5356" gradientUnits="userSpaceOnUse" gradientTransform="matrix(0.4226,-0.9063,0.9063,0.4226,4226.9761,-6584.5938)">
      <stop id="stop4784" style="stop-color:#9e2064;stop-opacity:1" offset="0.3233"/>
      <stop id="stop4786" style="stop-color:#c92037;stop-opacity:1" offset="0.6302"/>
      <stop id="stop4788" style="stop-color:#cd2335;stop-opacity:1" offset="0.7514"/>
      <stop id="stop4790" style="stop-color:#e97826;stop-opacity:1" offset="1"/>
    </linearGradient>
    <linearGradient x1="-8238.3281" y1="-745.68481" x2="-7698.647" y2="-745.68481" id="linearGradient5358" gradientUnits="userSpaceOnUse" gradientTransform="matrix(0.4226,-0.9063,0.9063,0.4226,4226.9761,-6584.5938)">
      <stop id="stop4799" style="stop-color:#9e2064;stop-opacity:1" offset="0.3233"/>
      <stop id="stop4801" style="stop-color:#c92037;stop-opacity:1" offset="0.6302"/>
      <stop id="stop4803" style="stop-color:#cd2335;stop-opacity:1" offset="0.7514"/>
      <stop id="stop4805" style="stop-color:#e97826;stop-opacity:1" offset="1"/>
    </linearGradient>
    <linearGradient x1="-8238.3281" y1="-747.58557" x2="-7698.647" y2="-747.58557" id="linearGradient5360" gradientUnits="userSpaceOnUse" gradientTransform="matrix(0.4226,-0.9063,0.9063,0.4226,4226.9761,-6584.5938)">
      <stop id="stop4814" style="stop-color:#9e2064;stop-opacity:1" offset="0.3233"/>
      <stop id="stop4816" style="stop-color:#c92037;stop-opacity:1" offset="0.6302"/>
      <stop id="stop4818" style="stop-color:#cd2335;stop-opacity:1" offset="0.7514"/>
      <stop id="stop4820" style="stop-color:#e97826;stop-opacity:1" offset="1"/>
    </linearGradient>
    <linearGradient x1="-7935.1431" y1="-747.9668" x2="-7815.856" y2="-747.9668" id="linearGradient5362" gradientUnits="userSpaceOnUse" gradientTransform="matrix(0.4226,-0.9063,0.9063,0.4226,4226.9761,-6584.5938)">
      <stop id="stop4829" style="stop-color:#9e2064;stop-opacity:1" offset="0.3233"/>
      <stop id="stop4831" style="stop-color:#c92037;stop-opacity:1" offset="0.6302"/>
      <stop id="stop4833" style="stop-color:#cd2335;stop-opacity:1" offset="0.7514"/>
      <stop id="stop4835" style="stop-color:#e97826;stop-opacity:1" offset="1"/>
    </linearGradient>
    <linearGradient x1="-7708.7969" y1="-803.36011" x2="-7633.1528" y2="-714.90741" id="linearGradient7396" gradientUnits="userSpaceOnUse" gradientTransform="matrix(0.4226,-0.9063,0.9063,0.4226,4226.9761,-6584.5938)">
      <stop id="stop4704" style="stop-color:#f69923;stop-opacity:1" offset="0"/>
      <stop id="stop4706" style="stop-color:#f79a23;stop-opacity:1" offset="0.3123"/>
      <stop id="stop4708" style="stop-color:#e97826;stop-opacity:1" offset="0.8383"/>
    </linearGradient>
    <linearGradient x1="-8268.6387" y1="-813.12323" x2="-7728.9585" y2="-813.12323" id="linearGradient7398" gradientUnits="userSpaceOnUse" gradientTransform="matrix(0.4226,-0.9063,0.9063,0.4226,4226.9761,-6584.5938)">
      <stop id="stop4729" style="stop-color:#9e2064;stop-opacity:1" offset="0.3233"/>
      <stop id="stop4731" style="stop-color:#c92037;stop-opacity:1" offset="0.6302"/>
      <stop id="stop4733" style="stop-color:#cd2335;stop-opacity:1" offset="0.7514"/>
      <stop id="stop4735" style="stop-color:#e97826;stop-opacity:1" offset="1"/>
    </linearGradient>
    <linearGradient x1="-8203.4922" y1="-758.99402" x2="-7881.895" y2="-758.99402" id="linearGradient7400" gradientUnits="userSpaceOnUse" gradientTransform="matrix(0.4226,-0.9063,0.9063,0.4226,4226.9761,-6584.5938)">
      <stop id="stop4740" style="stop-color:#282662;stop-opacity:1" offset="0"/>
      <stop id="stop4742" style="stop-color:#662e8d;stop-opacity:1" offset="0.0955"/>
      <stop id="stop4744" style="stop-color:#9f2064;stop-opacity:1" offset="0.7882"/>
      <stop id="stop4746" style="stop-color:#cd2032;stop-opacity:1" offset="0.9487"/>
    </linearGradient>
    <linearGradient x1="-8238.3281" y1="-818.15222" x2="-7698.647" y2="-818.15222" id="linearGradient7402" gradientUnits="userSpaceOnUse" gradientTransform="matrix(0.4226,-0.9063,0.9063,0.4226,4226.9761,-6584.5938)">
      <stop id="stop4751" style="stop-color:#9e2064;stop-opacity:1" offset="0.3233"/>
      <stop id="stop4753" style="stop-color:#c92037;stop-opacity:1" offset="0.6302"/>
      <stop id="stop4755" style="stop-color:#cd2335;stop-opacity:1" offset="0.7514"/>
      <stop id="stop4757" style="stop-color:#e97826;stop-opacity:1" offset="1"/>
    </linearGradient>
    <linearGradient x1="-8198.9678" y1="-810.85059" x2="-7915.3501" y2="-810.85059" id="linearGradient7404" gradientUnits="userSpaceOnUse" gradientTransform="matrix(0.4226,-0.9063,0.9063,0.4226,4226.9761,-6584.5938)">
      <stop id="stop4762" style="stop-color:#282662;stop-opacity:1" offset="0"/>
      <stop id="stop4764" style="stop-color:#662e8d;stop-opacity:1" offset="0.0955"/>
      <stop id="stop4766" style="stop-color:#9f2064;stop-opacity:1" offset="0.7882"/>
      <stop id="stop4768" style="stop-color:#cd2032;stop-opacity:1" offset="0.9487"/>
    </linearGradient>
    <linearGradient x1="-8238.3281" y1="-762.29712" x2="-7698.647" y2="-762.29712" id="linearGradient7406" gradientUnits="userSpaceOnUse" gradientTransform="matrix(0.4226,-0.9063,0.9063,0.4226,4226.9761,-6584.5938)">
      <stop id="stop4773" style="stop-color:#9e2064;stop-opacity:1" offset="0.3233"/>
      <stop id="stop4775" style="stop-color:#c92037;stop-opacity:1" offset="0.6302"/>
      <stop id="stop4777" style="stop-color:#cd2335;stop-opacity:1" offset="0.7514"/>
      <stop id="stop4779" style="stop-color:#e97826;stop-opacity:1" offset="1"/>
    </linearGradient>
    <linearGradient x1="-8271.8057" y1="-765.07068" x2="-7732.125" y2="-765.07068" id="linearGradient7408" gradientUnits="userSpaceOnUse" gradientTransform="matrix(0.4226,-0.9063,0.9063,0.4226,4226.9761,-6584.5938)">
      <stop id="stop4784" style="stop-color:#9e2064;stop-opacity:1" offset="0.3233"/>
      <stop id="stop4786" style="stop-color:#c92037;stop-opacity:1" offset="0.6302"/>
      <stop id="stop4788" style="stop-color:#cd2335;stop-opacity:1" offset="0.7514"/>
      <stop id="stop4790" style="stop-color:#e97826;stop-opacity:1" offset="1"/>
    </linearGradient>
    <linearGradient x1="-8238.3281" y1="-745.68481" x2="-7698.647" y2="-745.68481" id="linearGradient7410" gradientUnits="userSpaceOnUse" gradientTransform="matrix(0.4226,-0.9063,0.9063,0.4226,4226.9761,-6584.5938)">
      <stop id="stop4799" style="stop-color:#9e2064;stop-opacity:1" offset="0.3233"/>
      <stop id="stop4801" style="stop-color:#c92037;stop-opacity:1" offset="0.6302"/>
      <stop id="stop4803" style="stop-color:#cd2335;stop-opacity:1" offset="0.7514"/>
      <stop id="stop4805" style="stop-color:#e97826;stop-opacity:1" offset="1"/>
    </linearGradient>
    <linearGradient x1="-8238.3281" y1="-747.58557" x2="-7698.647" y2="-747.58557" id="linearGradient7412" gradientUnits="userSpaceOnUse" gradientTransform="matrix(0.4226,-0.9063,0.9063,0.4226,4226.9761,-6584.5938)">
      <stop id="stop4814" style="stop-color:#9e2064;stop-opacity:1" offset="0.3233"/>
      <stop id="stop4816" style="stop-color:#c92037;stop-opacity:1" offset="0.6302"/>
      <stop id="stop4818" style="stop-color:#cd2335;stop-opacity:1" offset="0.7514"/>
      <stop id="stop4820" style="stop-color:#e97826;stop-opacity:1" offset="1"/>
    </linearGradient>
    <linearGradient x1="-7935.1431" y1="-747.9668" x2="-7815.856" y2="-747.9668" id="linearGradient7414" gradientUnits="userSpaceOnUse" gradientTransform="matrix(0.4226,-0.9063,0.9063,0.4226,4226.9761,-6584.5938)">
      <stop id="stop4829" style="stop-color:#9e2064;stop-opacity:1" offset="0.3233"/>
      <stop id="stop4831" style="stop-color:#c92037;stop-opacity:1" offset="0.6302"/>
      <stop id="stop4833" style="stop-color:#cd2335;stop-opacity:1" offset="0.7514"/>
      <stop id="stop4835" style="stop-color:#e97826;stop-opacity:1" offset="1"/>
    </linearGradient>
  </defs>
  <text x="199.61313" y="196.18768" id="text11870" style="font: italic bold 14px/125% &quot;Alte Haas Grotesk&quot;; letter-spacing: 0px; word-spacing: 0px; fill: url(#linearGradient12648); fill-opacity: 1; stroke: none; white-space: pre;"><tspan x="199.61313" y="196.18768" id="tspan11872" style="fill:url(#linearGradient12648);fill-opacity:1"/></text>
  <g id="g8927">
    <g transform="matrix(0.09561334,-0.07017507,0.07017507,0.09561334,132.73733,36.368381)" id="g7248">
      <path d="M 267.1 19.6 C 258.7 24.6 244.7 38.6 228.1 58.9 L 243.4 87.8 C 254.1 72.4 265.1 58.6 276.1 46.8 C 276.9 45.9 277.4 45.4 277.4 45.4 C 277 45.9 276.5 46.3 276.1 46.8 C 272.5 50.7 261.7 63.3 245.4 88.4 C 261.1 87.6 285.2 84.4 304.9 81 C 310.8 48.2 299.2 33.2 299.2 33.2 C 299.2 33.2 284.4 9.3 267.1 19.6 Z" id="path7258" style="fill:url(#linearGradient7396)"/>
      <path d="M 241.1 184.4 C 241.2 184.4 241.3 184.4 241.4 184.3 L 239.2 184.5 C 239.1 184.6 238.9 184.6 238.8 184.7 C 239.6 184.6 240.4 184.5 241.1 184.4 L 241.1 184.4 Z" id="path7260" style="fill:none"/>
      <path d="M 225.5 236.1 C 224.3 236.4 223 236.6 221.7 236.8 C 223 236.6 224.3 236.4 225.5 236.1 Z" id="path7262" style="fill:none"/>
      <path d="M 119.3 352.2 C 119.5 351.8 119.6 351.3 119.8 350.9 C 123.2 342 126.5 333.4 129.8 324.9 C 133.5 315.5 137.2 306.3 140.8 297.4 C 144.6 288.1 148.4 279 152.1 270.3 C 156 261.1 159.8 252.3 163.6 243.8 C 166.7 236.9 169.7 230.2 172.7 223.7 C 173.7 221.5 174.7 219.4 175.7 217.3 C 177.7 213.1 179.6 209 181.5 205 C 183.3 201.3 185 197.7 186.7 194.1 C 187.3 192.9 187.9 191.7 188.4 190.6 C 188.5 190.4 188.6 190.2 188.7 190 L 186.8 190.2 L 185.3 187.3 C 185.2 187.6 185 187.9 184.9 188.2 C 182.2 193.5 179.5 198.9 176.9 204.4 C 175.4 207.5 173.9 210.7 172.3 213.9 C 168.1 222.7 164 231.5 160 240.5 C 155.9 249.5 151.9 258.6 148 267.6 C 144.1 276.5 140.4 285.4 136.7 294.3 C 133 303.2 129.4 312 125.9 320.8 C 122.2 330 118.6 339.1 115.2 348.1 C 114.4 350.1 113.6 352.2 112.9 354.2 C 110.1 361.5 107.4 368.6 104.8 375.7 L 107.2 380.4 L 109.3 380.2 C 109.4 380 109.5 379.8 109.5 379.6 C 112.6 370.1 116 361 119.3 352.2 L 119.3 352.2 Z" id="path7264" style="fill:none"/>
      <path d="M 220.7 236.9 C 220.7 236.9 220.7 236.9 220.7 236.9 C 220.7 236.9 220.7 236.9 220.7 236.9 Z" id="path7266" style="fill:none"/>
      <path d="M 215.6 262.2 C 213.6 262.6 211.6 262.9 209.6 263.2 C 209.6 263.2 209.6 263.2 209.6 263.2 C 210.6 263.1 211.7 262.9 212.7 262.7 C 213.7 262.6 214.7 262.4 215.6 262.2 Z" id="path7268" style="fill:#be202e"/>
      <path d="M 215.6 262.2 C 213.6 262.6 211.6 262.9 209.6 263.2 C 209.6 263.2 209.6 263.2 209.6 263.2 C 210.6 263.1 211.7 262.9 212.7 262.7 C 213.7 262.6 214.7 262.4 215.6 262.2 Z" id="path7270" style="opacity:0.35;fill:#be202e"/>
      <path d="M 220.8 236.9 C 220.8 236.9 220.8 236.9 220.8 236.9 C 220.7 236.9 220.7 236.9 220.8 236.9 C 221.1 236.9 221.4 236.8 221.7 236.8 C 223 236.6 224.3 236.4 225.5 236.1 C 224 236.4 222.4 236.6 220.8 236.9 L 220.8 236.9 Z" id="path7272" style="fill:#be202e"/>
      <path d="M 220.8 236.9 C 220.8 236.9 220.8 236.9 220.8 236.9 C 220.7 236.9 220.7 236.9 220.8 236.9 C 221.1 236.9 221.4 236.8 221.7 236.8 C 223 236.6 224.3 236.4 225.5 236.1 C 224 236.4 222.4 236.6 220.8 236.9 L 220.8 236.9 Z" id="path7274" style="opacity:0.35;fill:#be202e"/>
      <path d="M 198.2 162.4 C 202.9 153.7 207.6 145.2 212.3 136.9 C 217.2 128.3 222.2 120 227.3 111.9 C 227.6 111.4 227.9 110.9 228.2 110.5 C 233.2 102.6 238.2 95 243.3 87.7 L 228 58.9 C 226.9 60.3 225.7 61.7 224.5 63.2 C 220.1 68.7 215.5 74.6 210.8 80.9 C 205.5 88 200.1 95.5 194.5 103.4 C 189.4 110.7 184.2 118.4 179 126.3 C 174.6 133.1 170.2 140 165.8 147.1 C 165.6 147.4 165.5 147.6 165.3 147.9 L 185.2 187.2 C 189.6 178.9 193.9 170.6 198.2 162.4 L 198.2 162.4 Z" id="path7286" style="fill:url(#linearGradient7398)"/>
      <path d="M 107.5 384.1 C 104.9 391.3 102.2 398.7 99.6 406.3 C 99.6 406.4 99.5 406.5 99.5 406.6 C 99.1 407.7 98.7 408.7 98.4 409.8 C 96.6 414.9 95.1 419.5 91.5 429.9 C 97.4 432.6 102.1 439.6 106.5 447.6 C 106 439.3 102.6 431.5 96.1 425.5 C 125 426.8 150 419.5 162.8 398.3 C 163.9 396.4 165 394.4 166 392.3 C 160.1 399.7 152.9 402.9 139.2 402.1 C 139.2 402.1 139.1 402.1 139.1 402.1 C 139.1 402.1 139.2 402.1 139.2 402.1 C 159.3 393.1 169.4 384.4 178.3 370.1 C 180.4 366.7 182.5 363 184.6 358.9 C 167 377 146.6 382.1 125.1 378.2 L 109 380 C 108.5 381.4 108 382.7 107.5 384.1 Z" id="path7298" style="fill:url(#linearGradient7400)"/>
      <path d="M 115 348 C 118.5 339 122.1 329.9 125.7 320.7 C 129.2 311.9 132.8 303.1 136.5 294.2 C 140.2 285.3 144 276.4 147.8 267.5 C 151.7 258.4 155.7 249.4 159.8 240.4 C 163.8 231.5 168 222.6 172.1 213.8 C 173.6 210.6 175.1 207.5 176.7 204.3 C 179.3 198.9 182 193.5 184.7 188.1 C 184.8 187.8 185 187.5 185.1 187.2 L 165.4 148 C 165.1 148.5 164.8 149.1 164.4 149.6 C 159.8 157.2 155.1 164.9 150.6 172.8 C 146 180.8 141.5 188.9 137.1 197.2 C 133.4 204.2 129.8 211.2 126.2 218.3 C 125.5 219.7 124.8 221.2 124.1 222.6 C 119.8 231.5 115.8 240.2 112.3 248.5 C 108.3 257.9 104.8 266.9 101.7 275.4 C 99.7 281 97.8 286.4 96.1 291.6 C 94.7 296 93.4 300.5 92.1 304.9 C 89.1 315.3 86.6 325.7 84.5 336.1 L 104.5 375.6 C 107.1 368.5 109.9 361.4 112.6 354.1 C 113.4 352.1 114.2 350.1 115 348 L 115 348 Z" id="path7310" style="fill:url(#linearGradient7402)"/>
      <path d="M 84.2 337.5 C 81.7 350.1 79.9 362.7 79 375.3 C 79 375.7 78.9 376.2 78.9 376.6 C 72.7 366.6 55.9 356.8 56 356.9 C 68 374.3 77.1 391.5 78.4 408.4 C 72 409.7 63.2 407.8 53.1 404.1 C 63.7 413.8 71.6 416.5 74.7 417.2 C 65 417.8 54.9 424.5 44.7 432.2 C 59.6 426.1 71.7 423.7 80.3 425.7 C 66.6 464.4 52.9 507.2 39.2 552.6 C 43.4 551.4 45.9 548.5 47.3 544.7 C 49.7 536.5 66 482.5 91.4 411.6 C 92.1 409.6 92.9 407.6 93.6 405.5 C 93.8 404.9 94 404.4 94.2 403.8 C 96.9 396.4 99.7 388.8 102.6 381 C 103.3 379.2 103.9 377.5 104.6 375.7 C 104.6 375.7 104.6 375.6 104.6 375.6 L 84.6 336.1 C 84.4 336.6 84.3 337 84.2 337.5 L 84.2 337.5 Z" id="path7322" style="fill:url(#linearGradient7404)"/>
      <path d="M 188.4 190.6 C 187.8 191.8 187.3 192.9 186.7 194.1 C 185 197.7 183.2 201.3 181.5 205 C 179.6 209 177.7 213.1 175.7 217.3 C 174.7 219.4 173.7 221.5 172.7 223.7 C 169.7 230.2 166.7 236.9 163.6 243.8 C 159.8 252.3 156 261.1 152.1 270.3 C 148.4 279 144.6 288.1 140.8 297.4 C 137.2 306.3 133.5 315.4 129.8 324.9 C 126.5 333.3 123.2 342 119.8 350.9 C 119.6 351.3 119.5 351.8 119.3 352.2 C 116 361 112.6 370.1 109.2 379.4 C 109.1 379.6 109 379.8 109 380 L 125.1 378.2 C 124.8 378.1 124.5 378.1 124.1 378 C 143.4 375.6 169 361.2 185.5 343.4 C 193.1 335.2 200 325.6 206.4 314.3 C 211.2 305.9 215.6 296.6 219.9 286.2 C 223.6 277.2 227.2 267.4 230.6 256.8 C 226.2 259.1 221.1 260.8 215.5 262 C 214.5 262.2 213.5 262.4 212.5 262.6 C 211.5 262.8 210.5 262.9 209.4 263.1 C 209.4 263.1 209.4 263.1 209.4 263.1 C 227.4 256.2 238.7 242.9 246.9 226.5 C 242.2 229.7 234.5 233.9 225.3 236 C 224.1 236.3 222.8 236.5 221.5 236.7 C 221.2 236.7 220.9 236.8 220.5 236.8 C 220.5 236.8 220.5 236.8 220.5 236.8 C 220.5 236.8 220.5 236.8 220.5 236.8 C 226.7 234.2 232 231.3 236.6 227.8 C 237.6 227.1 238.5 226.3 239.4 225.5 C 240.8 224.3 242.1 223 243.4 221.7 C 244.2 220.8 245 220 245.8 219.1 C 247.6 217 249.3 214.7 250.8 212.2 C 251.3 211.4 251.8 210.7 252.2 209.9 C 252.8 208.7 253.4 207.6 253.9 206.5 C 256.4 201.5 258.4 197 260 193 C 260.8 191 261.5 189.2 262.1 187.5 C 262.3 186.8 262.6 186.2 262.8 185.5 C 263.4 183.6 264 181.9 264.4 180.4 C 265 178.2 265.4 176.4 265.6 175.1 C 265 175.6 264.3 176.1 263.5 176.5 C 258.1 179.7 248.8 182.7 241.3 184.1 L 256.1 182.5 L 241.3 184.1 C 241.2 184.1 241.1 184.1 241 184.2 C 240.3 184.3 239.5 184.4 238.7 184.6 C 238.8 184.5 239 184.5 239.1 184.4 L 188.5 189.9 C 188.6 190.3 188.5 190.5 188.4 190.6 L 188.4 190.6 Z" id="path7334" style="fill:url(#linearGradient7406)"/>
      <path d="M 245.4 88.4 C 240.9 95.3 236 103.2 230.7 112 C 230.4 112.5 230.1 112.9 229.9 113.4 C 225.3 121.1 220.5 129.5 215.4 138.8 C 211 146.8 206.4 155.3 201.6 164.6 C 197.4 172.6 193.2 181.1 188.7 190.1 L 239.3 184.6 C 254 177.8 260.6 171.7 267 162.8 C 268.7 160.4 270.4 157.8 272.1 155.1 C 277.3 147 282.4 138.1 286.9 129.2 C 291.3 120.6 295.2 112.1 298.1 104.5 C 300 99.6 301.5 95.1 302.6 91.1 C 303.5 87.6 304.2 84.3 304.8 81.1 C 285.2 84.4 261.1 87.6 245.4 88.4 Z" id="path7346" style="fill:url(#linearGradient7408)"/>
      <path d="M 212.7 262.8 C 211.7 263 210.7 263.1 209.6 263.3 C 210.6 263.1 211.6 262.9 212.7 262.8 Z" id="path7348" style="fill:#be202e"/>
      <path d="M 212.7 262.8 C 211.7 263 210.7 263.1 209.6 263.3 C 210.6 263.1 211.6 262.9 212.7 262.8 Z" id="path7350" style="opacity:0.35;fill:#be202e"/>
      <path d="M 212.7 262.8 C 211.7 263 210.7 263.1 209.6 263.3 C 210.6 263.1 211.6 262.9 212.7 262.8 Z" id="path7362" style="fill:url(#linearGradient7410)"/>
      <path d="M 220.7 236.9 C 221 236.9 221.3 236.8 221.7 236.8 C 221.4 236.8 221.1 236.9 220.7 236.9 Z" id="path7364" style="fill:#be202e"/>
      <path d="M 220.7 236.9 C 221 236.9 221.3 236.8 221.7 236.8 C 221.4 236.8 221.1 236.9 220.7 236.9 Z" id="path7366" style="opacity:0.35;fill:#be202e"/>
      <path d="M 220.7 236.9 C 221 236.9 221.3 236.8 221.7 236.8 C 221.4 236.8 221.1 236.9 220.7 236.9 Z" id="path7378" style="fill:url(#linearGradient7412)"/>
      <path d="M 220.8 236.9 C 220.8 236.9 220.8 236.9 220.8 236.9 C 220.8 236.9 220.8 236.9 220.8 236.9 Z" id="path7380" style="fill:#be202e"/>
      <path d="M 220.8 236.9 C 220.8 236.9 220.8 236.9 220.8 236.9 C 220.8 236.9 220.8 236.9 220.8 236.9 Z" id="path7382" style="opacity:0.35;fill:#be202e"/>
      <path d="M 220.8 236.9 C 220.8 236.9 220.8 236.9 220.8 236.9 C 220.8 236.9 220.8 236.9 220.8 236.9 Z" id="path7394" style="fill:url(#linearGradient7414)"/>
    </g>
    <g style="font-style:italic;font-variant:normal;font-weight:bold;font-stretch:normal;font-size:100px;line-height:125%;font-family:'Alte Haas Grotesk';-inkscape-font-specification:'Sans Italic';letter-spacing:0px;word-spacing:0px;fill:#000000;fill-opacity:1;stroke:none" id="text5492">
      <path d="M 23.541 2.717 L 36.641 2.717 C 37.708 2.717 38.775 2.717 39.841 2.717 C 40.975 2.717 41.775 2.95 42.241 3.417 C 42.641 3.75 42.875 4.25 42.941 4.917 C 43.008 5.517 43.108 6.117 43.241 6.717 C 43.375 7.783 43.508 8.883 43.641 10.017 C 43.841 11.083 44.008 12.183 44.141 13.317 C 44.875 17.517 45.475 21.783 45.941 26.117 C 46.475 30.45 47.108 34.75 47.841 39.017 C 48.108 40.35 48.308 41.717 48.441 43.117 C 48.575 44.517 48.775 45.883 49.041 47.217 C 49.108 47.55 49.175 47.883 49.241 48.217 C 49.308 48.55 49.475 48.817 49.741 49.017 C 49.875 49.083 49.975 49.15 50.041 49.217 C 50.175 49.283 50.341 49.25 50.541 49.117 C 51.075 48.983 51.508 48.583 51.841 47.917 C 52.175 47.25 52.508 46.65 52.841 46.117 C 53.641 44.583 54.408 43.083 55.141 41.617 C 55.875 40.083 56.675 38.55 57.541 37.017 C 59.675 32.95 61.808 28.883 63.941 24.817 C 66.141 20.683 68.308 16.55 70.441 12.417 C 70.975 11.35 71.508 10.317 72.041 9.317 C 72.641 8.25 73.208 7.183 73.741 6.117 C 74.008 5.583 74.308 5.05 74.641 4.517 C 74.975 3.983 75.441 3.55 76.041 3.217 C 76.508 2.883 77.041 2.717 77.641 2.717 C 78.308 2.717 78.975 2.717 79.641 2.717 L 86.141 2.717 L 93.041 2.717 C 93.641 2.717 94.241 2.717 94.841 2.717 C 95.508 2.717 95.975 2.85 96.241 3.117 C 96.908 3.517 97.108 4.283 96.841 5.417 C 96.641 6.483 96.441 7.583 96.241 8.717 L 93.241 23.717 L 85.741 60.917 L 84.041 69.617 C 83.908 70.35 83.741 71.083 83.541 71.817 C 83.341 72.483 83.008 72.983 82.541 73.317 C 82.075 73.65 81.541 73.85 80.941 73.917 C 80.341 73.917 79.675 73.917 78.941 73.917 L 74.141 73.917 L 71.441 73.917 C 70.975 73.783 70.541 73.683 70.141 73.617 C 69.808 73.55 69.541 73.317 69.341 72.917 C 69.141 72.583 69.075 72.15 69.141 71.617 C 69.275 71.083 69.408 70.517 69.541 69.917 L 70.541 64.817 L 75.741 39.117 C 75.875 38.183 76.008 37.317 76.141 36.517 C 76.341 35.65 76.508 34.783 76.641 33.917 C 76.775 33.383 76.908 32.85 77.041 32.317 C 77.175 31.717 77.241 31.15 77.241 30.617 C 77.175 30.15 77.175 29.65 77.241 29.117 C 77.375 28.583 77.275 28.25 76.941 28.117 C 76.741 28.05 76.575 28.083 76.441 28.217 C 76.308 28.35 76.208 28.45 76.141 28.517 C 75.808 28.783 75.508 29.117 75.241 29.517 C 75.041 29.85 74.841 30.183 74.641 30.517 C 74.041 31.517 73.441 32.55 72.841 33.617 C 72.308 34.683 71.708 35.75 71.041 36.817 C 70.841 37.217 70.641 37.617 70.441 38.017 C 70.308 38.417 70.108 38.817 69.841 39.217 C 69.308 40.083 68.808 40.95 68.341 41.817 C 67.941 42.683 67.475 43.55 66.941 44.417 C 66.808 44.617 66.708 44.85 66.641 45.117 C 66.575 45.317 66.475 45.517 66.341 45.717 C 65.941 46.317 65.575 46.95 65.241 47.617 C 64.975 48.283 64.608 48.95 64.141 49.617 C 63.741 50.217 63.375 50.85 63.041 51.517 C 62.775 52.183 62.441 52.85 62.041 53.517 C 60.841 55.45 59.741 57.417 58.741 59.417 C 57.741 61.35 56.708 63.283 55.641 65.217 C 55.441 65.417 55.308 65.617 55.241 65.817 C 55.241 66.017 55.141 66.217 54.941 66.417 C 54.475 67.15 54.041 67.917 53.641 68.717 C 53.308 69.45 52.908 70.183 52.441 70.917 C 52.175 71.383 51.908 71.817 51.641 72.217 C 51.375 72.617 51.075 72.95 50.741 73.217 C 50.341 73.483 49.975 73.65 49.641 73.717 C 49.308 73.717 48.875 73.783 48.341 73.917 L 46.041 73.917 C 45.575 73.917 45.008 73.95 44.341 74.017 C 43.741 74.017 43.108 74.017 42.441 74.017 C 41.841 74.017 41.275 73.983 40.741 73.917 C 40.208 73.85 39.841 73.717 39.641 73.517 C 39.175 73.183 38.875 72.817 38.741 72.417 C 38.675 71.95 38.541 71.417 38.341 70.817 C 38.208 70.017 38.108 69.217 38.041 68.417 C 37.975 67.55 37.841 66.717 37.641 65.917 L 37.541 65.017 C 37.341 64.217 37.208 63.383 37.141 62.517 C 37.075 61.583 36.941 60.717 36.741 59.917 C 36.741 59.717 36.741 59.55 36.741 59.417 C 36.741 59.217 36.708 59.017 36.641 58.817 C 36.441 58.217 36.308 57.583 36.241 56.917 C 36.175 56.25 36.075 55.583 35.941 54.917 C 35.941 54.783 35.941 54.617 35.941 54.417 C 35.941 54.217 35.908 54.05 35.841 53.917 C 35.708 53.25 35.608 52.583 35.541 51.917 C 35.541 51.25 35.441 50.583 35.241 49.917 C 34.975 48.583 34.741 47.183 34.541 45.717 C 34.408 44.25 34.208 42.817 33.941 41.417 C 33.675 39.75 33.441 38.05 33.241 36.317 C 33.108 34.583 32.808 32.917 32.341 31.317 C 32.208 30.383 32.008 29.617 31.741 29.017 C 31.608 28.883 31.475 28.783 31.341 28.717 C 31.275 28.583 31.141 28.583 30.941 28.717 C 30.541 28.917 30.275 29.25 30.141 29.717 C 30.075 30.183 29.941 30.65 29.741 31.117 C 29.475 31.583 29.308 32.083 29.241 32.617 C 29.175 33.083 29.108 33.583 29.041 34.117 C 28.908 34.85 28.741 35.583 28.541 36.317 C 28.408 37.05 28.241 37.783 28.041 38.517 L 22.741 65.117 L 21.741 70.017 C 21.608 70.55 21.475 71.083 21.341 71.617 C 21.275 72.15 21.075 72.583 20.741 72.917 C 20.408 73.383 19.841 73.683 19.041 73.817 C 18.575 73.95 18.075 74.017 17.541 74.017 C 17.008 73.95 16.475 73.917 15.941 73.917 L 10.741 73.917 C 10.008 73.917 9.341 73.917 8.741 73.917 C 8.141 73.85 7.675 73.65 7.341 73.317 C 7.008 72.983 6.875 72.483 6.941 71.817 C 7.075 71.083 7.208 70.35 7.341 69.617 L 9.041 60.817 L 16.541 23.617 L 19.341 9.617 C 19.408 9.217 19.475 8.75 19.541 8.217 C 19.675 7.617 19.808 7.05 19.941 6.517 C 20.075 5.983 20.208 5.483 20.341 5.017 C 20.541 4.483 20.708 4.083 20.841 3.817 C 21.241 3.35 21.841 3.017 22.641 2.817 C 22.841 2.75 22.975 2.75 23.041 2.817 C 23.175 2.817 23.341 2.783 23.541 2.717 L 23.541 2.717 Z" style="" id="path4317"/>
      <path d="M 143.066 70.017 C 143.066 70.75 143 71.483 142.866 72.217 C 142.733 72.95 142.3 73.45 141.566 73.717 C 141.1 73.917 140.6 74.017 140.066 74.017 C 139.533 74.017 139 74.017 138.466 74.017 L 133.066 74.017 C 132.466 74.017 131.866 74.017 131.266 74.017 C 130.733 73.95 130.333 73.783 130.066 73.517 C 129.666 73.25 129.4 72.883 129.266 72.417 C 129.133 71.883 128.9 71.45 128.566 71.117 C 128.433 70.983 128.266 70.883 128.066 70.817 C 127.933 70.683 127.7 70.65 127.366 70.717 C 126.966 70.85 126.6 71.017 126.266 71.217 C 125.933 71.417 125.6 71.583 125.266 71.717 C 124.866 71.983 124.433 72.217 123.966 72.417 C 123.566 72.617 123.133 72.817 122.666 73.017 C 121.733 73.417 120.766 73.75 119.766 74.017 C 118.766 74.217 117.766 74.45 116.766 74.717 C 116.233 74.85 115.733 74.917 115.266 74.917 C 114.866 74.983 114.433 75.05 113.966 75.117 C 113.766 75.117 113.566 75.117 113.366 75.117 C 113.166 75.183 112.966 75.217 112.766 75.217 L 111.666 75.217 C 110.933 75.35 110.266 75.35 109.666 75.217 L 108.766 75.217 C 108.3 75.083 107.833 75.017 107.366 75.017 C 106.966 75.083 106.566 75.05 106.166 74.917 C 105.566 74.783 104.966 74.65 104.366 74.517 C 103.766 74.45 103.233 74.283 102.766 74.017 C 100.966 73.283 99.5 72.35 98.366 71.217 C 97.233 70.017 96.466 68.45 96.066 66.517 C 95.933 66.05 95.833 65.55 95.766 65.017 C 95.766 64.483 95.733 63.917 95.666 63.317 C 95.6 62.983 95.6 62.65 95.666 62.317 C 95.8 61.983 95.866 61.65 95.866 61.317 C 95.866 61.117 95.9 60.717 95.966 60.117 C 96.1 59.45 96.233 58.983 96.366 58.717 C 96.633 58.05 96.8 57.483 96.866 57.017 C 97.2 56.283 97.533 55.55 97.866 54.817 C 98.266 54.017 98.7 53.317 99.166 52.717 C 100.633 50.783 102.2 49.317 103.866 48.317 C 105.533 47.317 107.6 46.45 110.066 45.717 C 111 45.383 111.933 45.15 112.866 45.017 C 113.8 44.883 114.766 44.717 115.766 44.517 C 116.3 44.383 116.866 44.317 117.466 44.317 C 118.133 44.25 118.766 44.15 119.366 44.017 C 119.833 43.883 120.3 43.85 120.766 43.917 C 121.233 43.917 121.766 43.85 122.366 43.717 C 122.833 43.583 123.3 43.517 123.766 43.517 C 124.233 43.517 124.733 43.45 125.266 43.317 C 126.733 42.983 128.066 42.717 129.266 42.517 C 130.533 42.25 131.733 41.65 132.866 40.717 C 133.533 40.117 134.066 39.45 134.466 38.717 C 134.533 38.517 134.566 38.35 134.566 38.217 C 134.566 38.083 134.6 37.95 134.666 37.817 C 134.8 37.683 134.866 37.483 134.866 37.217 C 134.933 36.95 135 36.75 135.066 36.617 C 135.066 36.35 135.066 36.083 135.066 35.817 C 135.066 35.55 135.066 35.317 135.066 35.117 C 134.8 33.117 133.666 31.75 131.666 31.017 C 131.133 30.817 130.433 30.683 129.566 30.617 C 128.766 30.483 127.933 30.45 127.066 30.517 C 126.2 30.517 125.333 30.583 124.466 30.717 C 123.666 30.85 122.966 31.017 122.366 31.217 C 121.9 31.35 121.466 31.55 121.066 31.817 C 120.666 32.017 120.266 32.25 119.866 32.517 C 119.466 32.783 119.033 33.15 118.566 33.617 C 118.1 34.083 117.766 34.517 117.566 34.917 C 117.1 35.583 116.7 36.217 116.366 36.817 C 116.033 37.417 115.466 37.817 114.666 38.017 C 114.133 38.15 113.566 38.217 112.966 38.217 C 112.366 38.217 111.766 38.217 111.166 38.217 L 107.366 38.217 C 107.033 38.217 106.666 38.25 106.266 38.317 C 105.933 38.317 105.666 38.283 105.466 38.217 L 104.566 38.217 C 104.433 38.15 104.266 38.117 104.066 38.117 C 103.866 38.117 103.7 38.05 103.566 37.917 C 103.1 37.783 102.833 37.35 102.766 36.617 C 102.766 36.283 102.833 35.95 102.966 35.617 C 103.1 35.283 103.233 34.983 103.366 34.717 C 103.7 33.983 104.033 33.317 104.366 32.717 C 104.766 32.05 105.166 31.45 105.566 30.917 C 105.833 30.583 106.1 30.25 106.366 29.917 C 106.633 29.583 106.9 29.25 107.166 28.917 C 107.833 28.183 108.633 27.483 109.566 26.817 C 109.766 26.75 110 26.583 110.266 26.317 C 110.666 26.05 111 25.817 111.266 25.617 C 111.6 25.417 111.966 25.217 112.366 25.017 C 113.633 24.283 114.933 23.717 116.266 23.317 C 117.666 22.85 119.066 22.417 120.466 22.017 C 121.333 21.817 122.2 21.683 123.066 21.617 C 123.933 21.55 124.833 21.417 125.766 21.217 C 126.033 21.15 126.433 21.15 126.966 21.217 C 127.5 21.283 127.866 21.25 128.066 21.117 C 130.8 21.05 133.366 21.15 135.766 21.417 C 138.233 21.683 140.4 22.183 142.266 22.917 C 144.2 23.65 145.766 24.65 146.966 25.917 C 148.233 27.117 149.066 28.683 149.466 30.617 C 149.666 31.75 149.666 33.05 149.466 34.517 C 149.266 35.983 149 37.483 148.666 39.017 L 144.166 61.317 C 143.966 62.583 143.733 63.883 143.466 65.217 C 143.2 66.483 143.1 67.65 143.166 68.717 C 143.166 68.917 143.133 69.15 143.066 69.417 C 143.066 69.617 143.066 69.817 143.066 70.017 L 143.066 70.017 Z M 131.466 54.617 C 131.6 54.283 131.7 53.917 131.766 53.517 C 131.833 53.05 131.866 52.65 131.866 52.317 C 131.866 51.917 131.9 51.55 131.966 51.217 C 132.033 50.883 131.933 50.617 131.666 50.417 C 131.4 50.15 130.933 50.017 130.266 50.017 C 130 50.083 129.766 50.15 129.566 50.217 C 129.366 50.217 129.1 50.25 128.766 50.317 C 128.3 50.45 127.8 50.55 127.266 50.617 C 126.733 50.683 126.166 50.783 125.566 50.917 C 125.366 50.983 125.066 51.017 124.666 51.017 C 123.733 51.217 122.833 51.35 121.966 51.417 C 121.1 51.483 120.233 51.65 119.366 51.917 C 118.833 52.05 118.3 52.183 117.766 52.317 C 117.3 52.383 116.833 52.517 116.366 52.717 C 114.833 53.317 113.466 54.217 112.266 55.417 C 111.066 56.617 110.366 58.283 110.166 60.417 C 110.1 61.55 110.3 62.483 110.766 63.217 C 111.033 63.95 111.6 64.55 112.466 65.017 C 113.333 65.417 114.3 65.717 115.366 65.917 C 116.433 66.117 117.566 66.183 118.766 66.117 C 120.033 65.983 121.233 65.75 122.366 65.417 C 124.233 64.883 125.766 64.05 126.966 62.917 C 128.233 61.717 129.3 60.25 130.166 58.517 C 130.366 58.05 130.533 57.583 130.666 57.117 C 130.8 56.583 131 56.05 131.266 55.517 L 131.466 54.617 L 131.466 54.617 Z" style="" id="path4319"/>
      <path d="M 161.288 22.417 L 168.588 22.417 C 169.322 22.417 170.022 22.45 170.688 22.517 C 171.355 22.517 171.888 22.65 172.288 22.917 C 172.955 23.383 173.288 24.25 173.288 25.517 C 173.355 26.717 173.488 27.783 173.688 28.717 C 173.955 30.917 174.188 33.183 174.388 35.517 C 174.588 37.783 174.822 40.05 175.088 42.317 C 175.355 43.917 175.555 45.55 175.688 47.217 C 175.822 48.883 176.022 50.483 176.288 52.017 C 176.355 52.617 176.422 53.25 176.488 53.917 C 176.622 54.583 177.055 54.917 177.788 54.917 C 177.988 54.783 178.122 54.717 178.188 54.717 C 178.255 54.65 178.355 54.55 178.488 54.417 C 178.755 54.083 178.988 53.75 179.188 53.417 C 179.388 53.083 179.588 52.717 179.788 52.317 C 180.322 51.583 180.722 50.817 180.988 50.017 C 181.322 49.217 181.722 48.45 182.188 47.717 C 183.655 44.917 185.088 42.117 186.488 39.317 C 187.888 36.45 189.322 33.617 190.788 30.817 C 191.322 30.017 191.755 29.217 192.088 28.417 C 192.488 27.55 192.888 26.75 193.288 26.017 C 193.555 25.483 193.822 24.95 194.088 24.417 C 194.422 23.883 194.822 23.45 195.288 23.117 C 195.488 22.983 195.955 22.783 196.688 22.517 C 197.088 22.383 197.522 22.35 197.988 22.417 C 198.455 22.417 198.888 22.417 199.288 22.417 L 204.188 22.417 C 204.922 22.417 205.588 22.45 206.188 22.517 C 206.855 22.517 207.322 22.683 207.588 23.017 C 207.922 23.35 207.955 23.85 207.688 24.517 C 207.488 25.117 207.288 25.617 207.088 26.017 C 206.555 26.95 206.022 27.95 205.488 29.017 C 204.955 30.017 204.422 30.983 203.888 31.917 C 203.622 32.383 203.388 32.85 203.188 33.317 C 202.988 33.717 202.788 34.117 202.588 34.517 C 202.122 35.25 201.688 35.983 201.288 36.717 C 200.888 37.45 200.488 38.183 200.088 38.917 C 200.022 39.117 199.922 39.35 199.788 39.617 C 199.722 39.817 199.622 40.017 199.488 40.217 C 198.888 41.217 198.322 42.25 197.788 43.317 C 197.255 44.317 196.722 45.317 196.188 46.317 C 195.055 48.317 193.955 50.383 192.888 52.517 C 191.822 54.583 190.688 56.617 189.488 58.617 C 188.955 59.55 188.455 60.483 187.988 61.417 C 187.588 62.283 187.122 63.183 186.588 64.117 C 186.388 64.45 186.222 64.75 186.088 65.017 C 185.955 65.217 185.788 65.483 185.588 65.817 C 185.188 66.55 184.788 67.317 184.388 68.117 C 184.055 68.85 183.655 69.583 183.188 70.317 C 182.722 71.05 182.288 71.75 181.888 72.417 C 181.488 73.017 180.922 73.45 180.188 73.717 C 179.588 73.917 178.988 74.017 178.388 74.017 C 177.788 73.95 177.188 73.917 176.588 73.917 L 170.088 73.917 C 169.355 73.917 168.622 73.917 167.888 73.917 C 167.222 73.917 166.655 73.783 166.188 73.517 C 165.788 73.183 165.522 72.783 165.388 72.317 C 165.322 71.783 165.255 71.217 165.188 70.617 C 164.988 69.817 164.822 68.983 164.688 68.117 C 164.622 67.25 164.522 66.417 164.388 65.617 C 164.322 65.35 164.288 65.117 164.288 64.917 C 164.288 64.65 164.255 64.35 164.188 64.017 C 163.988 63.217 163.855 62.383 163.788 61.517 C 163.722 60.65 163.588 59.783 163.388 58.917 C 163.322 58.583 163.288 58.283 163.288 58.017 C 163.288 57.683 163.255 57.35 163.188 57.017 C 163.055 56.417 162.955 55.817 162.888 55.217 C 162.822 54.55 162.722 53.917 162.588 53.317 C 162.522 53.117 162.488 52.917 162.488 52.717 C 162.555 52.45 162.555 52.217 162.488 52.017 C 162.355 51.417 162.255 50.817 162.188 50.217 C 162.122 49.617 162.022 48.983 161.888 48.317 C 161.622 46.783 161.388 45.217 161.188 43.617 C 160.988 41.95 160.788 40.317 160.588 38.717 C 160.188 36.917 159.888 35.117 159.688 33.317 C 159.555 31.45 159.322 29.617 158.988 27.817 L 158.688 25.117 C 158.622 24.917 158.588 24.683 158.588 24.417 C 158.655 24.083 158.788 23.783 158.988 23.517 C 159.255 23.05 159.788 22.717 160.588 22.517 C 160.922 22.517 161.155 22.483 161.288 22.417 L 161.288 22.417 Z" style="fill:none;stroke:none" id="path4321"/>
      <path d="M 259.041 47.717 C 259.041 48.25 258.908 48.85 258.641 49.517 C 258.375 50.183 258.041 50.617 257.641 50.817 C 257.308 51.083 256.808 51.283 256.141 51.417 C 255.475 51.483 254.741 51.55 253.941 51.617 C 253.208 51.617 252.441 51.617 251.641 51.617 C 250.908 51.55 250.241 51.517 249.641 51.517 L 225.241 51.517 C 224.775 51.517 224.308 51.517 223.841 51.517 C 223.441 51.517 223.075 51.583 222.741 51.717 C 222.141 51.983 221.741 52.25 221.541 52.517 C 221.408 52.65 221.208 52.917 220.941 53.317 C 220.741 53.65 220.641 53.983 220.641 54.317 C 220.708 54.717 220.708 55.117 220.641 55.517 C 220.641 55.85 220.675 56.217 220.741 56.617 C 220.941 58.217 221.308 59.55 221.841 60.617 C 222.441 61.617 223.308 62.517 224.441 63.317 C 224.908 63.65 225.408 63.883 225.941 64.017 C 226.541 64.083 227.108 64.217 227.641 64.417 C 228.175 64.55 228.875 64.65 229.741 64.717 C 230.675 64.783 231.508 64.75 232.241 64.617 L 233.141 64.617 C 233.808 64.483 234.441 64.35 235.041 64.217 C 235.641 64.017 236.241 63.817 236.841 63.617 C 237.575 63.283 238.408 62.85 239.341 62.317 C 240.275 61.783 241.008 61.25 241.541 60.717 C 241.941 60.25 242.375 59.817 242.841 59.417 C 243.308 58.95 243.808 58.617 244.341 58.417 C 245.075 58.083 245.941 57.95 246.941 58.017 C 248.008 58.017 248.975 58.017 249.841 58.017 C 250.241 58.017 250.641 58.017 251.041 58.017 C 251.508 57.95 251.908 57.983 252.241 58.117 L 253.241 58.117 C 253.841 58.25 254.275 58.417 254.541 58.617 C 254.741 58.75 254.808 59.05 254.741 59.517 C 254.741 59.983 254.641 60.383 254.441 60.717 C 253.908 61.65 253.341 62.483 252.741 63.217 C 252.208 63.95 251.608 64.683 250.941 65.417 C 249.075 67.617 247.075 69.383 244.941 70.717 C 242.808 72.05 240.241 73.183 237.241 74.117 C 236.441 74.383 235.675 74.55 234.941 74.617 C 234.208 74.683 233.408 74.817 232.541 75.017 C 232.275 75.083 231.975 75.083 231.641 75.017 C 231.375 75.017 231.108 75.05 230.841 75.117 L 229.741 75.117 C 229.341 75.25 228.941 75.283 228.541 75.217 C 228.141 75.217 227.775 75.183 227.441 75.117 C 226.908 75.05 226.441 75.05 226.041 75.117 C 225.641 75.183 225.208 75.15 224.741 75.017 C 224.408 74.883 224.041 74.817 223.641 74.817 C 223.241 74.817 222.908 74.75 222.641 74.617 C 221.908 74.483 221.175 74.317 220.441 74.117 C 219.775 73.983 219.175 73.75 218.641 73.417 C 217.975 73.15 217.341 72.917 216.741 72.717 C 216.141 72.45 215.608 72.15 215.141 71.817 C 213.275 70.483 211.675 68.95 210.341 67.217 C 209.075 65.417 208.141 63.35 207.541 61.017 C 207.341 60.283 207.208 59.55 207.141 58.817 C 207.141 58.017 207.041 57.217 206.841 56.417 C 206.841 56.15 206.841 55.917 206.841 55.717 C 206.908 55.45 206.941 55.183 206.941 54.917 C 206.875 54.117 206.875 53.25 206.941 52.317 C 207.075 51.383 207.208 50.45 207.341 49.517 C 207.408 49.183 207.441 48.817 207.441 48.417 C 207.508 48.017 207.608 47.65 207.741 47.317 L 208.041 46.117 L 208.841 43.717 C 209.308 42.583 209.741 41.483 210.141 40.417 C 210.541 39.35 211.041 38.35 211.641 37.417 C 215.908 30.483 221.775 25.583 229.241 22.717 C 230.241 22.317 231.241 22.05 232.241 21.917 C 233.241 21.717 234.308 21.483 235.441 21.217 C 235.975 21.15 236.475 21.117 236.941 21.117 C 237.408 21.117 237.908 21.083 238.441 21.017 C 241.841 20.95 244.675 21.35 246.941 22.217 C 249.208 23.017 251.175 24.083 252.841 25.417 C 253.375 25.817 253.875 26.283 254.341 26.817 C 254.875 27.283 255.308 27.783 255.641 28.317 C 255.775 28.65 256.008 28.917 256.341 29.117 C 256.741 29.85 257.075 30.617 257.341 31.417 C 257.675 32.15 258.041 32.917 258.441 33.717 C 258.641 34.317 258.775 34.95 258.841 35.617 C 258.975 36.217 259.108 36.883 259.241 37.617 C 259.375 38.483 259.441 39.383 259.441 40.317 C 259.508 41.25 259.575 42.183 259.641 43.117 C 259.641 43.65 259.541 44.25 259.341 44.917 C 259.208 45.517 259.175 46.083 259.241 46.617 L 259.041 47.717 L 259.041 47.717 Z M 245.141 41.817 C 245.741 41.15 245.941 40.35 245.741 39.417 C 245.608 38.417 245.508 37.683 245.441 37.217 C 244.841 35.417 243.875 34.05 242.541 33.117 C 241.208 32.117 239.175 31.583 236.441 31.517 C 236.241 31.65 236.008 31.683 235.741 31.617 C 235.475 31.55 235.241 31.55 235.041 31.617 C 234.641 31.75 234.241 31.85 233.841 31.917 C 233.441 31.917 233.075 31.983 232.741 32.117 C 229.608 33.05 227.075 34.883 225.141 37.617 C 224.941 37.883 224.708 38.25 224.441 38.717 C 224.175 39.117 223.975 39.55 223.841 40.017 C 223.708 40.417 223.641 40.817 223.641 41.217 C 223.641 41.617 223.808 41.95 224.141 42.217 C 224.608 42.55 225.308 42.717 226.241 42.717 C 227.175 42.717 228.075 42.717 228.941 42.717 L 240.041 42.717 C 240.975 42.717 241.941 42.717 242.941 42.717 C 244.008 42.65 244.741 42.35 245.141 41.817 L 245.141 41.817 Z" style="" id="path4323"/>
      <path d="M 302.163 21.117 C 306.163 20.983 309.363 21.55 311.763 22.817 C 314.23 24.083 315.963 25.95 316.963 28.417 C 317.297 29.15 317.497 29.95 317.563 30.817 C 317.697 31.617 317.797 32.45 317.863 33.317 C 317.93 33.85 317.93 34.35 317.863 34.817 C 317.797 35.283 317.797 35.75 317.863 36.217 C 317.73 36.617 317.697 36.883 317.763 37.017 C 317.697 37.95 317.563 38.917 317.363 39.917 C 317.163 40.917 316.963 41.883 316.763 42.817 L 315.063 51.717 L 311.763 67.917 C 311.497 69.183 311.23 70.417 310.963 71.617 C 310.697 72.75 310.063 73.483 309.063 73.817 C 308.663 73.95 308.197 74.017 307.663 74.017 C 307.13 74.017 306.597 74.017 306.063 74.017 L 300.663 74.017 C 299.863 74.017 299.163 73.983 298.563 73.917 C 297.963 73.783 297.53 73.483 297.263 73.017 C 297.063 72.617 296.997 72.117 297.063 71.517 C 297.197 70.85 297.33 70.15 297.463 69.417 L 298.863 62.417 L 301.863 47.517 C 302.33 45.05 302.663 42.783 302.863 40.717 C 303.13 38.583 302.897 36.783 302.163 35.317 C 301.497 33.983 300.33 33.05 298.663 32.517 C 298.33 32.383 297.963 32.317 297.563 32.317 C 297.23 32.317 296.897 32.25 296.563 32.117 C 296.23 32.05 295.797 32.05 295.263 32.117 C 294.797 32.117 294.43 32.15 294.163 32.217 C 293.83 32.283 293.563 32.317 293.363 32.317 C 293.163 32.317 292.963 32.35 292.763 32.417 C 291.163 32.817 289.83 33.35 288.763 34.017 C 286.297 35.55 284.563 37.783 283.563 40.717 C 282.63 43.65 281.797 46.95 281.063 50.617 L 278.563 63.117 L 277.363 69.217 C 277.23 69.817 277.097 70.417 276.963 71.017 C 276.83 71.617 276.63 72.117 276.363 72.517 C 275.897 73.25 275.263 73.683 274.463 73.817 C 273.73 73.95 272.83 74.017 271.763 74.017 L 266.763 74.017 C 266.03 74.017 265.297 73.983 264.563 73.917 C 263.83 73.85 263.363 73.617 263.163 73.217 C 262.763 72.617 262.697 71.75 262.963 70.617 C 263.23 69.483 263.463 68.417 263.663 67.417 L 266.363 53.817 L 270.763 31.817 L 271.863 26.717 C 271.997 25.983 272.13 25.317 272.263 24.717 C 272.397 24.117 272.697 23.617 273.163 23.217 C 273.297 23.017 273.53 22.883 273.863 22.817 C 274.197 22.683 274.53 22.583 274.863 22.517 L 275.363 22.517 C 275.697 22.45 276.03 22.417 276.363 22.417 C 276.763 22.417 277.13 22.417 277.463 22.417 L 281.663 22.417 C 282.197 22.417 282.697 22.45 283.163 22.517 C 283.697 22.517 284.163 22.583 284.563 22.717 C 284.963 22.917 285.197 23.217 285.263 23.617 C 285.397 24.017 285.463 24.483 285.463 25.017 C 285.463 25.283 285.43 25.517 285.363 25.717 C 285.297 25.917 285.297 26.117 285.363 26.317 C 285.43 26.65 285.497 26.85 285.563 26.917 C 285.697 26.983 285.863 27.083 286.063 27.217 C 286.73 27.283 287.363 27.05 287.963 26.517 C 288.563 25.917 289.163 25.45 289.763 25.117 C 291.83 23.783 294.03 22.717 296.363 21.917 C 297.03 21.717 297.663 21.583 298.263 21.517 C 298.93 21.45 299.663 21.35 300.463 21.217 C 300.663 21.15 300.963 21.15 301.363 21.217 C 301.763 21.217 302.03 21.183 302.163 21.117 L 302.163 21.117 Z" style="" id="path4325"/>
    </g>
    <g style="font-style:italic;font-variant:normal;font-weight:bold;font-stretch:normal;font-size:20px;line-height:125%;font-family:'Alte Haas Grotesk';-inkscape-font-specification:'Sans Italic';letter-spacing:0px;word-spacing:0px;fill:#000000;fill-opacity:1;stroke:none" id="text9112"/>
    <g transform="matrix(0.13272567,0.01947468,-0.01947468,0.13272567,170.19741,12.570146)" id="g4701">
      <path d="M 267.1 19.6 C 258.7 24.6 244.7 38.6 228.1 58.9 L 243.4 87.8 C 254.1 72.4 265.1 58.6 276.1 46.8 C 276.9 45.9 277.4 45.4 277.4 45.4 C 277 45.9 276.5 46.3 276.1 46.8 C 272.5 50.7 261.7 63.3 245.4 88.4 C 261.1 87.6 285.2 84.4 304.9 81 C 310.8 48.2 299.2 33.2 299.2 33.2 C 299.2 33.2 284.4 9.3 267.1 19.6 Z" id="path4710" style="fill:url(#linearGradient5344)"/>
      <path d="M 241.1 184.4 C 241.2 184.4 241.3 184.4 241.4 184.3 L 239.2 184.5 C 239.1 184.6 238.9 184.6 238.8 184.7 C 239.6 184.6 240.4 184.5 241.1 184.4 L 241.1 184.4 Z" id="path4712" style="fill:none"/>
      <path d="M 225.5 236.1 C 224.3 236.4 223 236.6 221.7 236.8 C 223 236.6 224.3 236.4 225.5 236.1 Z" id="path4714" style="fill:none"/>
      <path d="M 119.3 352.2 C 119.5 351.8 119.6 351.3 119.8 350.9 C 123.2 342 126.5 333.4 129.8 324.9 C 133.5 315.5 137.2 306.3 140.8 297.4 C 144.6 288.1 148.4 279 152.1 270.3 C 156 261.1 159.8 252.3 163.6 243.8 C 166.7 236.9 169.7 230.2 172.7 223.7 C 173.7 221.5 174.7 219.4 175.7 217.3 C 177.7 213.1 179.6 209 181.5 205 C 183.3 201.3 185 197.7 186.7 194.1 C 187.3 192.9 187.9 191.7 188.4 190.6 C 188.5 190.4 188.6 190.2 188.7 190 L 186.8 190.2 L 185.3 187.3 C 185.2 187.6 185 187.9 184.9 188.2 C 182.2 193.5 179.5 198.9 176.9 204.4 C 175.4 207.5 173.9 210.7 172.3 213.9 C 168.1 222.7 164 231.5 160 240.5 C 155.9 249.5 151.9 258.6 148 267.6 C 144.1 276.5 140.4 285.4 136.7 294.3 C 133 303.2 129.4 312 125.9 320.8 C 122.2 330 118.6 339.1 115.2 348.1 C 114.4 350.1 113.6 352.2 112.9 354.2 C 110.1 361.5 107.4 368.6 104.8 375.7 L 107.2 380.4 L 109.3 380.2 C 109.4 380 109.5 379.8 109.5 379.6 C 112.6 370.1 116 361 119.3 352.2 L 119.3 352.2 Z" id="path4716" style="fill:none"/>
      <path d="M 220.7 236.9 C 220.7 236.9 220.7 236.9 220.7 236.9 C 220.7 236.9 220.7 236.9 220.7 236.9 Z" id="path4718" style="fill:none"/>
      <path d="M 215.6 262.2 C 213.6 262.6 211.6 262.9 209.6 263.2 C 209.6 263.2 209.6 263.2 209.6 263.2 C 210.6 263.1 211.7 262.9 212.7 262.7 C 213.7 262.6 214.7 262.4 215.6 262.2 Z" id="path4720" style="fill:#be202e"/>
      <path d="M 215.6 262.2 C 213.6 262.6 211.6 262.9 209.6 263.2 C 209.6 263.2 209.6 263.2 209.6 263.2 C 210.6 263.1 211.7 262.9 212.7 262.7 C 213.7 262.6 214.7 262.4 215.6 262.2 Z" id="path4722" style="opacity:0.35;fill:#be202e"/>
      <path d="M 220.8 236.9 C 220.8 236.9 220.8 236.9 220.8 236.9 C 220.7 236.9 220.7 236.9 220.8 236.9 C 221.1 236.9 221.4 236.8 221.7 236.8 C 223 236.6 224.3 236.4 225.5 236.1 C 224 236.4 222.4 236.6 220.8 236.9 L 220.8 236.9 Z" id="path4724" style="fill:#be202e"/>
      <path d="M 220.8 236.9 C 220.8 236.9 220.8 236.9 220.8 236.9 C 220.7 236.9 220.7 236.9 220.8 236.9 C 221.1 236.9 221.4 236.8 221.7 236.8 C 223 236.6 224.3 236.4 225.5 236.1 C 224 236.4 222.4 236.6 220.8 236.9 L 220.8 236.9 Z" id="path4726" style="opacity:0.35;fill:#be202e"/>
      <path d="M 198.2 162.4 C 202.9 153.7 207.6 145.2 212.3 136.9 C 217.2 128.3 222.2 120 227.3 111.9 C 227.6 111.4 227.9 110.9 228.2 110.5 C 233.2 102.6 238.2 95 243.3 87.7 L 228 58.9 C 226.9 60.3 225.7 61.7 224.5 63.2 C 220.1 68.7 215.5 74.6 210.8 80.9 C 205.5 88 200.1 95.5 194.5 103.4 C 189.4 110.7 184.2 118.4 179 126.3 C 174.6 133.1 170.2 140 165.8 147.1 C 165.6 147.4 165.5 147.6 165.3 147.9 L 185.2 187.2 C 189.6 178.9 193.9 170.6 198.2 162.4 L 198.2 162.4 Z" id="path4737" style="fill:url(#linearGradient5346)"/>
      <path d="M 107.5 384.1 C 104.9 391.3 102.2 398.7 99.6 406.3 C 99.6 406.4 99.5 406.5 99.5 406.6 C 99.1 407.7 98.7 408.7 98.4 409.8 C 96.6 414.9 95.1 419.5 91.5 429.9 C 97.4 432.6 102.1 439.6 106.5 447.6 C 106 439.3 102.6 431.5 96.1 425.5 C 125 426.8 150 419.5 162.8 398.3 C 163.9 396.4 165 394.4 166 392.3 C 160.1 399.7 152.9 402.9 139.2 402.1 C 139.2 402.1 139.1 402.1 139.1 402.1 C 139.1 402.1 139.2 402.1 139.2 402.1 C 159.3 393.1 169.4 384.4 178.3 370.1 C 180.4 366.7 182.5 363 184.6 358.9 C 167 377 146.6 382.1 125.1 378.2 L 109 380 C 108.5 381.4 108 382.7 107.5 384.1 Z" id="path4748" style="fill:url(#linearGradient5348)"/>
      <path d="M 115 348 C 118.5 339 122.1 329.9 125.7 320.7 C 129.2 311.9 132.8 303.1 136.5 294.2 C 140.2 285.3 144 276.4 147.8 267.5 C 151.7 258.4 155.7 249.4 159.8 240.4 C 163.8 231.5 168 222.6 172.1 213.8 C 173.6 210.6 175.1 207.5 176.7 204.3 C 179.3 198.9 182 193.5 184.7 188.1 C 184.8 187.8 185 187.5 185.1 187.2 L 165.4 148 C 165.1 148.5 164.8 149.1 164.4 149.6 C 159.8 157.2 155.1 164.9 150.6 172.8 C 146 180.8 141.5 188.9 137.1 197.2 C 133.4 204.2 129.8 211.2 126.2 218.3 C 125.5 219.7 124.8 221.2 124.1 222.6 C 119.8 231.5 115.8 240.2 112.3 248.5 C 108.3 257.9 104.8 266.9 101.7 275.4 C 99.7 281 97.8 286.4 96.1 291.6 C 94.7 296 93.4 300.5 92.1 304.9 C 89.1 315.3 86.6 325.7 84.5 336.1 L 104.5 375.6 C 107.1 368.5 109.9 361.4 112.6 354.1 C 113.4 352.1 114.2 350.1 115 348 L 115 348 Z" id="path4759" style="fill:url(#linearGradient5350)"/>
      <path d="M 84.2 337.5 C 81.7 350.1 79.9 362.7 79 375.3 C 79 375.7 78.9 376.2 78.9 376.6 C 72.7 366.6 55.9 356.8 56 356.9 C 68 374.3 77.1 391.5 78.4 408.4 C 72 409.7 63.2 407.8 53.1 404.1 C 63.7 413.8 71.6 416.5 74.7 417.2 C 65 417.8 54.9 424.5 44.7 432.2 C 59.6 426.1 71.7 423.7 80.3 425.7 C 66.6 464.4 52.9 507.2 39.2 552.6 C 43.4 551.4 45.9 548.5 47.3 544.7 C 49.7 536.5 66 482.5 91.4 411.6 C 92.1 409.6 92.9 407.6 93.6 405.5 C 93.8 404.9 94 404.4 94.2 403.8 C 96.9 396.4 99.7 388.8 102.6 381 C 103.3 379.2 103.9 377.5 104.6 375.7 C 104.6 375.7 104.6 375.6 104.6 375.6 L 84.6 336.1 C 84.4 336.6 84.3 337 84.2 337.5 L 84.2 337.5 Z" id="path4770" style="fill:url(#linearGradient5352)"/>
      <path d="M 188.4 190.6 C 187.8 191.8 187.3 192.9 186.7 194.1 C 185 197.7 183.2 201.3 181.5 205 C 179.6 209 177.7 213.1 175.7 217.3 C 174.7 219.4 173.7 221.5 172.7 223.7 C 169.7 230.2 166.7 236.9 163.6 243.8 C 159.8 252.3 156 261.1 152.1 270.3 C 148.4 279 144.6 288.1 140.8 297.4 C 137.2 306.3 133.5 315.4 129.8 324.9 C 126.5 333.3 123.2 342 119.8 350.9 C 119.6 351.3 119.5 351.8 119.3 352.2 C 116 361 112.6 370.1 109.2 379.4 C 109.1 379.6 109 379.8 109 380 L 125.1 378.2 C 124.8 378.1 124.5 378.1 124.1 378 C 143.4 375.6 169 361.2 185.5 343.4 C 193.1 335.2 200 325.6 206.4 314.3 C 211.2 305.9 215.6 296.6 219.9 286.2 C 223.6 277.2 227.2 267.4 230.6 256.8 C 226.2 259.1 221.1 260.8 215.5 262 C 214.5 262.2 213.5 262.4 212.5 262.6 C 211.5 262.8 210.5 262.9 209.4 263.1 C 209.4 263.1 209.4 263.1 209.4 263.1 C 227.4 256.2 238.7 242.9 246.9 226.5 C 242.2 229.7 234.5 233.9 225.3 236 C 224.1 236.3 222.8 236.5 221.5 236.7 C 221.2 236.7 220.9 236.8 220.5 236.8 C 220.5 236.8 220.5 236.8 220.5 236.8 C 220.5 236.8 220.5 236.8 220.5 236.8 C 226.7 234.2 232 231.3 236.6 227.8 C 237.6 227.1 238.5 226.3 239.4 225.5 C 240.8 224.3 242.1 223 243.4 221.7 C 244.2 220.8 245 220 245.8 219.1 C 247.6 217 249.3 214.7 250.8 212.2 C 251.3 211.4 251.8 210.7 252.2 209.9 C 252.8 208.7 253.4 207.6 253.9 206.5 C 256.4 201.5 258.4 197 260 193 C 260.8 191 261.5 189.2 262.1 187.5 C 262.3 186.8 262.6 186.2 262.8 185.5 C 263.4 183.6 264 181.9 264.4 180.4 C 265 178.2 265.4 176.4 265.6 175.1 C 265 175.6 264.3 176.1 263.5 176.5 C 258.1 179.7 248.8 182.7 241.3 184.1 L 256.1 182.5 L 241.3 184.1 C 241.2 184.1 241.1 184.1 241 184.2 C 240.3 184.3 239.5 184.4 238.7 184.6 C 238.8 184.5 239 184.5 239.1 184.4 L 188.5 189.9 C 188.6 190.3 188.5 190.5 188.4 190.6 L 188.4 190.6 Z" id="path4781" style="fill:url(#linearGradient5354)"/>
      <path d="M 245.4 88.4 C 240.9 95.3 236 103.2 230.7 112 C 230.4 112.5 230.1 112.9 229.9 113.4 C 225.3 121.1 220.5 129.5 215.4 138.8 C 211 146.8 206.4 155.3 201.6 164.6 C 197.4 172.6 193.2 181.1 188.7 190.1 L 239.3 184.6 C 254 177.8 260.6 171.7 267 162.8 C 268.7 160.4 270.4 157.8 272.1 155.1 C 277.3 147 282.4 138.1 286.9 129.2 C 291.3 120.6 295.2 112.1 298.1 104.5 C 300 99.6 301.5 95.1 302.6 91.1 C 303.5 87.6 304.2 84.3 304.8 81.1 C 285.2 84.4 261.1 87.6 245.4 88.4 Z" id="path4792" style="fill:url(#linearGradient5356)"/>
      <path d="M 212.7 262.8 C 211.7 263 210.7 263.1 209.6 263.3 C 210.6 263.1 211.6 262.9 212.7 262.8 Z" id="path4794" style="fill:#be202e"/>
      <path d="M 212.7 262.8 C 211.7 263 210.7 263.1 209.6 263.3 C 210.6 263.1 211.6 262.9 212.7 262.8 Z" id="path4796" style="opacity:0.35;fill:#be202e"/>
      <path d="M 212.7 262.8 C 211.7 263 210.7 263.1 209.6 263.3 C 210.6 263.1 211.6 262.9 212.7 262.8 Z" id="path4807" style="fill:url(#linearGradient5358)"/>
      <path d="M 220.7 236.9 C 221 236.9 221.3 236.8 221.7 236.8 C 221.4 236.8 221.1 236.9 220.7 236.9 Z" id="path4809" style="fill:#be202e"/>
      <path d="M 220.7 236.9 C 221 236.9 221.3 236.8 221.7 236.8 C 221.4 236.8 221.1 236.9 220.7 236.9 Z" id="path4811" style="opacity:0.35;fill:#be202e"/>
      <path d="M 220.7 236.9 C 221 236.9 221.3 236.8 221.7 236.8 C 221.4 236.8 221.1 236.9 220.7 236.9 Z" id="path4822" style="fill:url(#linearGradient5360)"/>
      <path d="M 220.8 236.9 C 220.8 236.9 220.8 236.9 220.8 236.9 C 220.8 236.9 220.8 236.9 220.8 236.9 Z" id="path4824" style="fill:#be202e"/>
      <path d="M 220.8 236.9 C 220.8 236.9 220.8 236.9 220.8 236.9 C 220.8 236.9 220.8 236.9 220.8 236.9 Z" id="path4826" style="opacity:0.35;fill:#be202e"/>
      <path d="M 220.8 236.9 C 220.8 236.9 220.8 236.9 220.8 236.9 C 220.8 236.9 220.8 236.9 220.8 236.9 Z" id="path4837" style="fill:url(#linearGradient5362)"/>
    </g>
  </g>
  <g transform="translate(385.61463,-191.53704)" id="g4845"/>
  <g transform="translate(385.61463,-191.53704)" id="g4847"/>
  <g transform="translate(385.61463,-191.53704)" id="g4849"/>
  <g transform="translate(385.61463,-191.53704)" id="g4851"/>
  <g transform="translate(385.61463,-191.53704)" id="g4853"/>
  <g transform="translate(385.61463,-191.53704)" id="g4855"/>
</svg>