<?xml version="1.0" standalone="no"?>
<!DOCTYPE svg PUBLIC "-//W3C//DTD SVG 20010904//EN"
 "http://www.w3.org/TR/2001/REC-SVG-20010904/DTD/svg10.dtd">
<svg version="1.0" xmlns="http://www.w3.org/2000/svg"
 width="100.000000pt" height="100.000000pt" viewBox="0 0 100.000000 100.000000"
 preserveAspectRatio="xMidYMid meet">
<metadata>
Created by potrace 1.15, written by Peter Selinger 2001-2017
</metadata>
<g transform="translate(0.000000,100.000000) scale(0.100000,-0.100000)"
fill="#000000" stroke="none">
<path d="M320 970 c-146 -3 -266 -7 -267 -8 -1 -1 -9 -15 -18 -32 -12 -23 -15
-69 -15 -230 l0 -200 178 0 177 0 17 -40 c18 -43 68 -80 108 -80 38 0 90 36
106 75 11 27 14 88 14 274 0 219 -1 239 -17 242 -10 2 -137 2 -283 -1z m-35
-21 c17 0 24 -3 18 -6 -7 -2 -13 -10 -13 -17 0 -6 -12 -19 -28 -28 -15 -9 -39
-27 -53 -40 -79 -71 -99 -88 -99 -83 0 4 -13 -8 -29 -25 l-28 -31 -6 38 c-26
154 14 209 143 198 36 -3 79 -5 95 -6z"/>
<path d="M23 253 c3 -244 -14 -227 235 -230 134 -1 174 1 142 8 -166 33 -317
179 -365 352 -14 50 -14 44 -12 -130z"/>
<path d="M967 394 c-15 -77 -64 -163 -130 -229 -69 -69 -137 -108 -225 -129
-56 -14 -53 -14 115 -15 94 -1 183 3 197 9 49 18 57 53 54 237 -2 121 -5 156
-11 127z"/>
</g>
</svg>
