<?xml version="1.0" encoding="utf-8"?>
<svg width="154" height="250" viewBox="0 0 416 416" preserveAspectRatio="xMidYMid" xmlns="http://www.w3.org/2000/svg">
  <path d="M 281.816 230.216 C 265.63 230.216 251.119 237.387 241.182 248.677 L 215.719 230.651 C 218.422 223.209 219.974 215.218 219.974 206.854 C 219.974 198.635 218.476 190.778 215.862 183.446 L 241.268 165.611 C 251.204 176.844 265.677 183.976 281.816 183.976 C 311.691 183.976 336 159.671 336 129.792 C 336 99.913 311.691 75.608 281.816 75.608 C 251.941 75.608 227.632 99.913 227.632 129.792 C 227.632 135.14 228.44 140.297 229.89 145.181 L 204.467 163.025 C 193.847 149.85 178.556 140.651 161.134 137.843 L 161.134 107.203 C 185.678 102.048 204.171 80.241 204.171 54.184 C 204.171 24.305 179.862 0 149.987 0 C 120.112 0 95.803 24.305 95.803 54.184 C 95.803 79.892 113.817 101.43 137.87 106.953 L 137.87 137.991 C 105.044 143.753 80 172.401 80 206.854 C 80 241.475 105.292 270.228 138.355 275.794 L 138.355 308.568 C 114.056 313.909 95.803 335.579 95.803 361.462 C 95.803 391.341 120.112 415.646 149.987 415.646 C 179.862 415.646 204.171 391.341 204.171 361.462 C 204.171 335.579 185.918 313.909 161.619 308.568 L 161.619 275.793 C 178.354 272.974 193.494 264.169 204.219 251.017 L 229.852 269.16 C 228.429 274 227.632 279.106 227.632 284.4 C 227.632 314.279 251.941 338.584 281.816 338.584 C 311.691 338.584 336 314.279 336 284.4 C 336 254.521 311.691 230.216 281.816 230.216 Z M 281.816 103.521 C 296.303 103.521 308.086 115.309 308.086 129.792 C 308.086 144.275 296.303 156.062 281.816 156.062 C 267.329 156.062 255.546 144.275 255.546 129.792 C 255.546 115.309 267.329 103.521 281.816 103.521 Z M 123.716 54.184 C 123.716 39.701 135.5 27.914 149.987 27.914 C 164.474 27.914 176.257 39.701 176.257 54.184 C 176.257 68.667 164.474 80.454 149.987 80.454 C 135.5 80.454 123.716 68.667 123.716 54.184 Z M 176.257 361.462 C 176.257 375.945 164.474 387.732 149.987 387.732 C 135.5 387.732 123.716 375.945 123.716 361.462 C 123.716 346.979 135.5 335.192 149.987 335.192 C 164.474 335.192 176.257 346.979 176.257 361.462 Z M 149.985 243.492 C 129.78 243.492 113.343 227.058 113.343 206.854 C 113.343 186.649 129.78 170.212 149.985 170.212 C 170.189 170.212 186.626 186.649 186.626 206.854 C 186.626 227.058 170.189 243.492 149.985 243.492 Z M 281.816 310.671 C 267.329 310.671 255.546 298.883 255.546 284.4 C 255.546 269.917 267.329 258.13 281.816 258.13 C 296.303 258.13 308.086 269.917 308.086 284.4 C 308.086 298.883 296.303 310.671 281.816 310.671 Z"/>
</svg>