<?xml version="1.0" encoding="utf-8"?>
<svg width="90px" height="60" preserveAspectRatio="xMidYMid" viewBox="0 0 9 6.142" xmlns="http://www.w3.org/2000/svg">
  <path d="M 2.096 3.94 C 1.997 3.888 1.89 3.853 1.779 3.835 C 1.665 3.815 1.55 3.805 1.435 3.805 C 1.341 3.805 1.247 3.797 1.155 3.781 C 1.063 3.765 0.982 3.737 0.911 3.696 C 0.841 3.656 0.783 3.6 0.741 3.531 C 0.694 3.449 0.672 3.356 0.676 3.262 C 0.675 3.175 0.698 3.09 0.743 3.016 C 0.785 2.95 0.843 2.893 0.91 2.852 C 0.984 2.809 1.064 2.778 1.148 2.761 C 1.298 2.729 1.448 2.723 1.62 2.746 C 1.683 2.755 1.746 2.771 1.806 2.793 C 1.865 2.815 1.92 2.845 1.971 2.882 C 2.022 2.92 2.066 2.966 2.101 3.019 L 2.121 3.049 L 2.273 2.985 L 2.241 2.939 C 2.201 2.882 2.155 2.839 2.104 2.782 C 2.053 2.725 2.004 2.696 1.929 2.665 C 1.854 2.634 1.789 2.611 1.707 2.595 C 1.625 2.579 1.532 2.583 1.427 2.583 C 1.322 2.583 1.218 2.595 1.116 2.618 C 1.012 2.64 0.913 2.679 0.822 2.733 C 0.733 2.785 0.657 2.858 0.602 2.946 C 0.543 3.045 0.513 3.158 0.516 3.273 C 0.516 3.407 0.543 3.523 0.596 3.613 C 0.649 3.703 0.72 3.777 0.796 3.831 C 0.887 3.886 0.987 3.924 1.091 3.944 C 1.202 3.966 1.314 3.977 1.427 3.977 C 1.523 3.977 1.62 3.984 1.715 3.998 C 1.808 4.01 1.899 4.037 1.983 4.078 C 2.06 4.115 2.127 4.171 2.178 4.239 C 2.228 4.305 2.252 4.394 2.252 4.503 C 2.252 4.601 2.228 4.685 2.182 4.753 C 2.133 4.823 2.068 4.881 1.994 4.923 C 1.912 4.969 1.824 5.001 1.732 5.02 C 1.638 5.04 1.541 5.051 1.445 5.051 C 1.289 5.051 1.145 5.021 0.988 4.963 C 0.84 4.908 0.707 4.819 0.6 4.703 L 0.57 4.673 L 0.45 4.778 L 0.484 4.812 C 0.602 4.927 0.737 5.022 0.884 5.094 C 1.04 5.174 1.232 5.214 1.444 5.214 C 1.551 5.213 1.658 5.202 1.763 5.18 C 1.873 5.158 1.979 5.118 2.076 5.062 C 2.171 5.008 2.253 4.934 2.316 4.845 C 2.382 4.745 2.416 4.627 2.412 4.507 C 2.418 4.386 2.383 4.266 2.312 4.167 C 2.25 4.08 2.17 4.008 2.077 3.955 M 3.529 5.073 C 3.425 5.072 3.323 5.049 3.229 5.006 C 3.14 4.961 3.06 4.899 2.994 4.823 C 2.926 4.744 2.873 4.654 2.837 4.556 C 2.799 4.456 2.778 4.351 2.773 4.244 C 2.773 4.146 2.791 4.047 2.827 3.947 C 2.862 3.849 2.914 3.758 2.981 3.679 C 3.048 3.6 3.13 3.534 3.222 3.485 C 3.316 3.435 3.421 3.41 3.528 3.411 C 3.63 3.41 3.731 3.434 3.823 3.48 C 3.923 3.526 3.996 3.58 4.063 3.665 C 4.132 3.743 4.187 3.834 4.223 3.932 C 4.262 4.031 4.282 4.136 4.283 4.242 C 4.282 4.343 4.264 4.444 4.229 4.539 C 4.194 4.637 4.142 4.728 4.075 4.807 C 4.008 4.887 3.927 4.951 3.835 4.999 C 3.743 5.047 3.64 5.071 3.528 5.071 M 4.196 3.553 C 4.115 3.459 4.017 3.381 3.908 3.323 C 3.792 3.259 3.661 3.224 3.528 3.223 C 3.404 3.223 3.282 3.25 3.17 3.303 C 3.058 3.357 2.957 3.43 2.87 3.519 C 2.77 3.619 2.722 3.716 2.675 3.836 C 2.627 3.957 2.603 4.085 2.603 4.215 C 2.603 4.339 2.625 4.462 2.669 4.578 C 2.712 4.692 2.775 4.798 2.855 4.891 C 2.935 4.984 3.033 5.06 3.143 5.115 C 3.259 5.173 3.387 5.204 3.517 5.205 L 3.519 5.205 C 3.647 5.203 3.769 5.175 3.879 5.119 C 3.989 5.063 4.087 4.992 4.179 4.901 C 4.271 4.81 4.326 4.705 4.372 4.588 C 4.418 4.471 4.442 4.345 4.442 4.216 C 4.441 4.095 4.419 3.975 4.378 3.861 C 4.336 3.743 4.296 3.648 4.196 3.553 M 5.296 5.013 L 5.226 5.028 L 5.158 5.038 C 5.136 5.041 5.114 5.043 5.092 5.043 C 5.038 5.043 4.999 5.025 4.972 4.989 C 4.944 4.954 4.928 4.911 4.927 4.866 L 4.927 2.521 L 4.767 2.521 L 4.767 4.866 C 4.766 4.95 4.795 5.033 4.85 5.097 C 4.907 5.165 4.988 5.199 5.09 5.199 C 5.122 5.199 5.154 5.197 5.185 5.193 L 5.265 5.193 L 5.349 5.177 L 5.403 5.164 L 5.333 5.014 L 5.297 5.024 Z M 5.996 3.397 C 5.913 3.457 5.839 3.53 5.776 3.619 L 5.776 3.263 L 5.596 3.263 L 5.596 5.183 L 5.756 5.183 L 5.756 3.988 C 5.777 3.912 5.808 3.839 5.847 3.77 C 5.885 3.704 5.933 3.645 5.989 3.595 C 6.046 3.545 6.111 3.505 6.182 3.476 C 6.259 3.445 6.341 3.428 6.424 3.426 L 6.467 3.426 L 6.467 3.263 L 6.422 3.263 C 6.263 3.259 6.106 3.306 5.975 3.396" fill="#201f26"/>
  <path d="M 8.266 1.517 L 6.938 2.951 L 8.596 2.183 C 8.546 1.933 8.429 1.703 8.256 1.518 Z M 7.282 1.09 C 7.104 1.09 6.927 1.125 6.762 1.193 L 6.584 2.693 L 7.484 1.093 C 7.42 1.083 7.356 1.079 7.291 1.079 Z M 8.62 2.264 L 7.04 3.148 L 8.522 2.972 C 8.59 2.802 8.627 2.622 8.632 2.439 C 8.632 2.38 8.628 2.321 8.62 2.263 Z M 8.037 3.558 C 8.214 3.438 8.36 3.278 8.464 3.091 L 7.064 3.367 Z M 7.555 1.118 L 6.782 2.783 L 8.217 1.456 C 8.037 1.283 7.81 1.159 7.557 1.106 Z M 7.396 3.785 C 7.542 3.773 7.685 3.737 7.82 3.679 L 7.042 3.587 L 7.397 3.785 Z M 6.053 1.885 C 5.991 2.022 5.952 2.169 5.939 2.319 L 6.139 2.694 Z M 6.648 1.249 C 6.448 1.351 6.295 1.496 6.172 1.674 L 6.368 2.659 Z" fill="#c7402b"/>
</svg>